<svg width="32" height="32" viewBox="0 0 32 32" fill="none" xmlns="http://www.w3.org/2000/svg">
<rect width="32" height="32" rx="16" fill="white"/>
<path d="M24.2755 7.88978C23.3019 6.89659 22.1502 6.08059 20.8746 5.48652C20.8228 5.45985 20.77 5.43556 20.7155 5.41274C20.4648 5.30074 20.2115 5.19408 19.9519 5.09985C19.2257 4.83585 18.4657 4.64326 17.6805 4.52859C17.1315 4.44859 16.5706 4.40533 15.9999 4.40533C9.60675 4.40533 4.40527 9.60652 4.40527 16C4.40527 20.9807 7.56261 25.2373 11.9807 26.8753C12.5004 27.0679 13.0376 27.2237 13.589 27.3407C14.3671 27.5061 15.1733 27.5947 15.9996 27.5947C20.4035 27.5947 24.2414 25.1262 26.2038 21.5004C27.09 19.8628 27.5943 17.9893 27.5943 16C27.5943 12.8453 26.3265 9.98252 24.2752 7.88978H24.2755ZM7.86364 22.203C6.49357 20.3959 5.76942 18.24 5.76942 15.9683C5.76942 12.0892 7.91994 8.70341 11.0912 6.94015C11.1751 6.89333 11.258 7.00474 11.1881 7.07052C10.8983 7.34341 10.6204 7.63496 10.3546 7.94548C8.51668 10.0951 7.45772 13.0184 7.44853 15.9683C7.44853 19.7982 10.0103 23.9319 14.1493 23.9319C17.8429 23.9319 20.8476 20.3594 20.8476 15.9683C20.8476 13.9052 20.1561 11.9241 18.975 10.4539C18.9333 10.4021 18.9828 10.3286 19.0465 10.3473C21.0429 10.9378 22.5359 13.2338 22.5359 15.9683C22.5359 18.3825 21.6601 20.7858 20.1327 22.5627C18.5496 24.4041 16.4245 25.419 14.1493 25.4199C11.7531 25.4199 9.46009 24.245 7.86335 22.2033L7.86364 22.203ZM24.3199 9.73985C25.6888 11.5425 26.4112 13.6951 26.4091 15.9662C26.4091 19.845 24.2586 23.2311 21.0871 24.9944C21.0032 25.0412 20.9202 24.9298 20.9902 24.864C21.2799 24.5911 21.5579 24.2993 21.8236 23.989C23.6616 21.8397 24.7205 18.9161 24.7297 15.9662C24.7297 12.1363 22.1679 8.00267 18.029 8.00267C14.3353 8.00267 11.3306 11.5751 11.3306 15.9662C11.3306 18.0293 12.0225 20.0107 13.2035 21.4809C13.245 21.5327 13.1958 21.6062 13.1321 21.5876C11.1353 20.9973 9.64231 18.7019 9.64231 15.9686C9.64231 13.555 10.5182 11.152 12.0459 9.3757C13.6296 7.53393 15.7552 6.51941 18.0313 6.51941C20.4257 6.51941 22.7179 7.69333 24.3202 9.73985H24.3199ZM19.6358 15.9683C19.6358 18.7034 18.3072 21.0637 16.4029 22.1236C16.167 22.2548 15.8764 22.2385 15.658 22.0794L15.2506 21.7822C13.5804 20.5636 12.5428 18.3348 12.5428 15.9662C12.5428 13.2314 13.8713 10.8711 15.7759 9.81126C16.0121 9.68 16.3028 9.6963 16.5208 9.85541L16.9279 10.1526C18.5982 11.3713 19.6358 13.5997 19.6358 15.9686V15.9683Z" fill="#0500E2"/>
</svg>
