<svg width="32" height="32" viewBox="0 0 32 32" fill="none" xmlns="http://www.w3.org/2000/svg">
<g clip-path="url(#clip0_471_60503)">
<path d="M27.42 4.80886C26.0761 3.43792 24.4868 2.31229 22.7274 1.49301C22.6558 1.45663 22.583 1.42259 22.5079 1.3909C22.1616 1.23596 21.8118 1.08924 21.4538 0.958955C20.4515 0.595092 19.4033 0.328651 18.3199 0.170194C17.5617 0.0598614 16.7882 0 16.0006 0C7.17749 0 0 7.17749 0 15.9994C0 22.8729 4.35697 28.7464 10.4534 31.007C11.1706 31.2723 11.9124 31.4882 12.673 31.649C13.747 31.8768 14.8597 32 15.9994 32C22.0771 32 27.3731 28.5938 30.0809 23.5901C31.304 21.3306 32 18.7448 32 15.9994C32 11.646 30.2499 7.69512 27.42 4.80769V4.80886ZM4.77248 24.5596C2.88156 22.0665 1.8827 19.0911 1.8827 15.956C1.8827 10.6037 4.84994 5.93097 9.22686 3.49778C9.34307 3.43322 9.45692 3.58699 9.36067 3.67736C8.96042 4.05414 8.5766 4.45674 8.21039 4.88516C5.67392 7.85123 4.2126 11.8854 4.19968 15.956C4.19968 21.2414 7.73502 26.9446 13.4465 26.9446C18.5429 26.9446 22.6898 22.0149 22.6898 15.956C22.6898 13.1096 21.7355 10.3748 20.1052 8.34655C20.0477 8.27495 20.1158 8.17401 20.2038 8.19983C22.9586 9.01441 25.0197 12.1835 25.0197 15.956C25.0197 19.2871 23.8107 22.6041 21.7038 25.0561C19.5195 27.5973 16.5863 28.9975 13.4465 28.9987C10.14 28.9987 6.97561 27.3778 4.77248 24.5596ZM27.4811 7.3606C29.3696 9.84778 30.3673 12.8185 30.3638 15.9525C30.3638 21.3048 27.3965 25.9775 23.0196 28.4107C22.9034 28.4752 22.7896 28.3215 22.8858 28.2311C23.2861 27.8543 23.6699 27.4517 24.0361 27.0233C26.5726 24.0572 28.0339 20.023 28.0468 15.9525C28.0468 10.6671 24.5115 4.9638 18.8 4.9638C13.7036 4.9638 9.55669 9.89356 9.55669 15.9525C9.55669 18.8 10.5109 21.5337 12.1413 23.5631C12.1988 23.6347 12.1307 23.7356 12.0427 23.7098C9.2879 22.8952 7.22679 19.7272 7.22679 15.956C7.22679 12.6249 8.43576 9.30903 10.5438 6.85823C12.7293 4.31706 15.6625 2.91677 18.8035 2.91677C22.1076 2.91677 25.2709 4.53655 27.4822 7.3606H27.4811ZM21.0172 15.956C21.0172 19.7296 19.1838 22.9879 16.5558 24.4504C16.2306 24.6312 15.8292 24.6089 15.5276 24.3894L14.9653 23.9798C12.6601 22.2978 11.2293 19.2225 11.2293 15.9536C11.2293 12.18 13.0627 8.92286 15.6907 7.46037C16.017 7.27961 16.4173 7.30191 16.7189 7.5214L17.2811 7.93104C19.5864 9.61303 21.0184 12.6883 21.0184 15.9572L21.0172 15.956Z" fill="#0500E1"/>
</g>
<defs>
<clipPath id="clip0_471_60503">
<rect width="32" height="32" fill="white"/>
</clipPath>
</defs>
</svg>
