<?xml version="1.0" encoding="UTF-8"?>
<svg id="Layer_2" data-name="Layer 2" xmlns="http://www.w3.org/2000/svg" viewBox="0 0 711.27 166.93">
  <defs>
    <style>
      .cls-1 {
        fill: #fff;
      }
    </style>
  </defs>
  <g id="Layer_1-2" data-name="Layer 1">
    <g>
      <g>
        <path class="cls-1" d="M467.34,95.67h0c-.17,1.77-2.72,1.87-3.02,.12l-.02-.12-7.79-38.49c-.25-1.23-1.33-2.12-2.59-2.12h-1.35c-1.26,0-2.34,.88-2.59,2.11l-7.87,38.5-.18,.97c-.32,1.73-2.83,1.64-3.02-.11l-.09-.86-5.35-38.34c-.18-1.31-1.3-2.28-2.62-2.28h-.09c-1.61,0-2.84,1.42-2.62,3.01l7.31,52.1c.18,1.3,1.3,2.28,2.62,2.28h3.28c1.25,0,2.33-.88,2.59-2.11l7.54-36.53,.23-1.35c.29-1.7,2.74-1.68,3.01,.02l.21,1.33,7.3,36.51c.25,1.24,1.33,2.12,2.59,2.12h3.1c1.32,0,2.43-.97,2.62-2.28l7.31-52.1c.22-1.59-1.01-3.01-2.62-3.01h0c-1.32,0-2.44,.97-2.62,2.28l-5.28,38.33Z"/>
        <path class="cls-1" d="M499.83,58.55l-17.55,50.61c-.56,1.6,.63,3.27,2.33,3.27h.54c1.05,0,1.98-.66,2.33-1.65l4.67-13.38c.35-.99,1.28-1.65,2.33-1.65h20.57c1.05,0,1.99,.67,2.33,1.66l4.62,13.37c.34,.99,1.28,1.66,2.33,1.66h.53c1.7,0,2.89-1.67,2.33-3.27l-17.55-50.61c-.73-2.09-2.7-3.5-4.91-3.5h0c-2.21,0-4.19,1.4-4.91,3.5Zm-2.74,32.27c-1.29,0-2.2-1.27-1.77-2.49l6.05-17.32,2.44-7.66c.31-.99,1.71-.99,2.03,0l2.36,7.49,6.05,17.49c.42,1.22-.48,2.49-1.77,2.49h-15.38Z"/>
        <path class="cls-1" d="M539.38,55.06h-.58c-1.36,0-2.47,1.1-2.47,2.47v52.45c0,1.36,1.1,2.47,2.47,2.47h32.14c1.36,0,2.47-1.1,2.47-2.47h0c0-1.36-1.1-2.47-2.47-2.47h-26.64c-1.36,0-2.47-1.1-2.47-2.47V57.52c0-1.36-1.1-2.47-2.47-2.47Z"/>
        <path class="cls-1" d="M583.17,55.06h-.58c-1.36,0-2.47,1.1-2.47,2.47v52.45c0,1.36,1.1,2.47,2.47,2.47h32.14c1.36,0,2.47-1.1,2.47-2.47h0c0-1.36-1.1-2.47-2.47-2.47h-26.64c-1.36,0-2.47-1.1-2.47-2.47V57.52c0-1.36-1.1-2.47-2.47-2.47Z"/>
        <path class="cls-1" d="M631.69,85.15h19.9c1.36,0,2.47-1.1,2.47-2.47h0c0-1.36-1.1-2.47-2.47-2.47h-19.9c-1.36,0-2.47-1.1-2.47-2.47v-15.29c0-1.36,1.1-2.47,2.47-2.47h29.92c1.36,0,2.47-1.1,2.47-2.47h0c0-1.36-1.1-2.47-2.47-2.47h-35.35c-1.36,0-2.47,1.1-2.47,2.47v52.45c0,1.36,1.1,2.47,2.47,2.47h35.68c1.36,0,2.47-1.1,2.47-2.47h0c0-1.36-1.1-2.47-2.47-2.47h-30.25c-1.36,0-2.47-1.1-2.47-2.47v-17.43c0-1.36,1.1-2.47,2.47-2.47Z"/>
        <path class="cls-1" d="M670.46,57.52h0c0,1.36,1.1,2.47,2.47,2.47h12.72c1.36,0,2.47,1.1,2.47,2.47v47.52c0,1.36,1.1,2.47,2.47,2.47h.58c1.36,0,2.47-1.1,2.47-2.47V62.46c0-1.36,1.1-2.47,2.47-2.47h12.72c1.36,0,2.47-1.1,2.47-2.47h0c0-1.36-1.1-2.47-2.47-2.47h-35.87c-1.36,0-2.47,1.1-2.47,2.47Z"/>
      </g>
      <path class="cls-1" d="M143.04,25.08c-7.01-7.15-15.3-13.02-24.48-17.3-.37-.19-.75-.37-1.14-.53-1.8-.81-3.63-1.57-5.5-2.25-5.23-1.9-10.7-3.29-16.35-4.11-3.95-.58-7.99-.89-12.1-.89C37.44,0,0,37.44,0,83.47c0,35.86,22.73,66.5,54.53,78.29,3.74,1.39,7.61,2.51,11.58,3.35,5.6,1.19,11.4,1.83,17.35,1.83,31.7,0,59.33-17.77,73.46-43.87,6.38-11.79,10.01-25.28,10.01-39.6,0-22.71-9.13-43.32-23.89-58.38ZM24.9,128.12c-9.86-13.01-15.08-28.53-15.08-44.88,0-27.92,15.48-52.3,38.31-64.99,.6-.34,1.2,.46,.7,.94-2.09,1.96-4.09,4.06-6,6.3-13.23,15.47-20.85,36.52-20.92,57.75,0,27.57,18.44,57.33,48.24,57.33,26.59,0,48.22-25.72,48.22-57.33,0-14.85-4.98-29.11-13.48-39.7-.3-.37,.06-.9,.51-.77,14.37,4.25,25.12,20.78,25.12,40.46,0,17.38-6.31,34.68-17.3,47.47-11.4,13.26-26.69,20.56-43.07,20.57-17.25,0-33.76-8.46-45.25-23.16ZM143.36,38.4c9.85,12.98,15.05,28.47,15.04,44.82,0,27.92-15.48,52.3-38.31,64.99-.6,.34-1.2-.46-.7-.94,2.09-1.96,4.09-4.06,6-6.3,13.23-15.47,20.85-36.52,20.92-57.75,0-27.57-18.44-57.33-48.24-57.33-26.59,0-48.22,25.72-48.22,57.33,0,14.85,4.98,29.12,13.48,39.7,.3,.37-.06,.9-.51,.77-14.37-4.25-25.12-20.77-25.12-40.45,0-17.37,6.31-34.67,17.3-47.46,11.4-13.26,26.7-20.56,43.09-20.56,17.24,0,33.74,8.45,45.27,23.18Zm-33.72,44.84c0,19.69-9.56,36.68-23.27,44.31-1.7,.95-3.79,.83-5.36-.32l-2.93-2.14c-12.02-8.77-19.49-24.82-19.49-41.87,0-19.69,9.56-36.68,23.27-44.31,1.7-.95,3.79-.83,5.36,.32l2.93,2.14c12.02,8.77,19.49,24.82,19.49,41.87Z"/>
      <g>
        <path class="cls-1" d="M290.61,57.91c-3.74-2.39-8.12-3.59-13.13-3.59s-9.4,1.2-13.17,3.59c-3.77,2.39-6.69,5.82-8.75,10.28-2.06,4.46-3.1,9.77-3.1,15.93s1.03,11.39,3.1,15.85c2.06,4.46,4.98,7.9,8.75,10.32,3.77,2.42,8.16,3.63,13.17,3.63s9.38-1.21,13.13-3.63c3.74-2.42,6.66-5.86,8.75-10.32,2.09-4.46,3.14-9.74,3.14-15.85s-1.05-11.54-3.14-15.97c-2.09-4.43-5.01-7.84-8.75-10.24Zm-2.19,36.94c-1.07,2.97-2.56,5.24-4.46,6.81-1.9,1.57-4.06,2.35-6.48,2.35s-4.6-.78-6.52-2.35c-1.93-1.57-3.43-3.84-4.5-6.81-1.07-2.97-1.61-6.55-1.61-10.73s.54-7.76,1.61-10.73c1.07-2.97,2.57-5.24,4.5-6.81,1.93-1.57,4.1-2.35,6.52-2.35s4.58,.78,6.48,2.35c1.9,1.57,3.38,3.83,4.46,6.77,1.07,2.94,1.61,6.54,1.61,10.77s-.54,7.76-1.61,10.73Z"/>
        <path class="cls-1" d="M346.22,83.5c-1.84-1.29-3.85-2.31-6.03-3.05-2.17-.74-4.36-1.37-6.56-1.9-2.2-.52-4.22-1.07-6.07-1.65-1.84-.58-3.32-1.33-4.42-2.27-1.1-.94-1.65-2.17-1.65-3.72,0-2.15,.81-3.8,2.44-4.95,1.62-1.16,3.67-1.73,6.15-1.73,1.71,0,3.29,.34,4.75,1.03,1.46,.69,2.67,1.69,3.63,3.01,.11,.15,.21,.31,.31,.47,.49,.81,1.34,1.33,2.29,1.33h7.22c1.83,0,3.13-1.83,2.47-3.54,0,0,0-.02,0-.02-.5-1.26-1.14-2.43-1.92-3.51-2.04-2.81-4.69-4.95-7.97-6.44-3.27-1.49-6.87-2.23-10.77-2.23-4.24,0-7.92,.74-11.06,2.23-3.14,1.49-5.57,3.51-7.31,6.07-1.73,2.56-2.6,5.44-2.6,8.63s.55,5.63,1.65,7.64c1.1,2.01,2.57,3.62,4.42,4.83,1.84,1.21,3.87,2.2,6.07,2.97,2.2,.77,4.39,1.43,6.56,1.98,2.17,.55,4.18,1.14,6.03,1.77,1.84,.63,3.31,1.45,4.42,2.44,1.1,.99,1.65,2.31,1.65,3.96,0,2.26-.84,4.02-2.52,5.28-1.68,1.27-3.92,1.9-6.73,1.9-3.47,0-6.11-1.02-7.92-3.05-.81-.91-1.44-2-1.88-3.27-.37-1.05-1.36-1.75-2.48-1.75h-6.72c-1.76,0-3,1.68-2.53,3.37,.44,1.6,1.04,3.08,1.81,4.45,1.82,3.25,4.4,5.75,7.76,7.51,3.36,1.76,7.35,2.64,11.97,2.64,4.18,0,7.91-.73,11.19-2.19,3.27-1.46,5.85-3.47,7.72-6.03,1.87-2.56,2.81-5.54,2.81-8.96s-.56-6.01-1.69-8.13c-1.13-2.12-2.61-3.82-4.46-5.12Z"/>
        <path class="cls-1" d="M375.19,100.25v-9.4c0-1.53,1.24-2.77,2.77-2.77h14.44c1.53,0,2.77-1.24,2.77-2.77v-4.36c0-1.53-1.24-2.77-2.77-2.77h-14.44c-1.53,0-2.77-1.24-2.77-2.77v-7.42c0-1.53,1.24-2.77,2.77-2.77h24.67c1.53,0,2.77-1.24,2.77-2.77v-4.36c0-1.53-1.24-2.77-2.77-2.77h-36.72c-1.53,0-2.77,1.24-2.77,2.77v52.08c0,1.53,1.24,2.77,2.77,2.77h37.05c1.53,0,2.77-1.24,2.77-2.77v-4.36c0-1.53-1.24-2.77-2.77-2.77h-25c-1.53,0-2.77-1.24-2.77-2.77Z"/>
        <path class="cls-1" d="M235.95,91.32c-.8-1.28-.42-2.95,.85-3.77,1.18-.76,2.15-1.65,3.3-2.65,1.98-1.73,3.49-3.66,4.54-5.78,1.04-2.12,1.57-4.3,1.57-6.56,0-3.63-.89-6.73-2.68-9.28-1.79-2.56-4.25-4.53-7.39-5.9-3.14-1.37-6.71-2.06-10.73-2.06h-20.6c-1.52,0-2.75,1.23-2.75,2.75v52.09c0,1.52,1.23,2.75,2.75,2.75h6.46c1.52,0,2.75-1.23,2.75-2.75v-16.87c0-1.51,1.23-2.74,2.74-2.74h4.21c.92,0,1.78,.46,2.29,1.23,2.58,3.88,9.86,15.82,12.29,19.82,.5,.82,1.39,1.32,2.35,1.32h6.55c2.16,0,3.48-2.38,2.34-4.21l-10.84-17.38Zm-10.54-26.1c1.59,0,3.02,.3,4.29,.91,1.26,.61,2.27,1.46,3.01,2.56,.74,1.1,1.11,2.39,1.11,3.88,0,1.6-.41,3-1.24,4.21-.82,1.21-1.95,2.16-3.38,2.85-1.43,.69-3.11,1.03-5.03,1.03h-7.4c-1.52,0-2.75-1.23-2.75-2.75v-9.93c0-1.52,1.23-2.75,2.75-2.75h8.63Z"/>
      </g>
    </g>
  </g>
</svg>