<?xml version="1.0" encoding="UTF-8"?>
<svg id="Layer_1" data-name="Layer 1" xmlns="http://www.w3.org/2000/svg" viewBox="150 450 780 175">
  <!-- ROSE Wallet Logo -->
  <defs>
    <style>
      .cls-1 {
        fill: #0500e2;
        stroke-width: 0px;
      }
    </style>
  </defs>
  <g>
    <g>
      <path class="cls-1" d="M422.53,549.36c-1.57-2.41-3.53-4.7-5.89-6.84h0c-.69-.63-.55-1.76.29-2.17,1.66-.81,3.15-1.78,4.45-2.92,1.91-1.67,3.37-3.53,4.38-5.57,1.01-2.04,1.51-4.15,1.51-6.33,0-3.5-.86-6.49-2.59-8.95-1.72-2.47-4.1-4.36-7.12-5.69-3.02-1.33-6.47-1.99-10.35-1.99h-20.35c-1.2,0-2.17.97-2.17,2.17v51.21c0,1.2.97,2.17,2.17,2.17h7.19c1.2,0,2.17-.97,2.17-2.17v-17.22c0-1.2.97-2.17,2.17-2.17h2.94c.43,0,.85.12,1.21.36.46.31.92.63,1.36.95,2.47,1.83,4.52,3.86,6.17,6.09,1.64,2.23,2.93,4.55,3.86,6.96.68,1.77,1.14,3.53,1.38,5.28.15,1.09,1.05,1.92,2.16,1.92h7.51c1.32,0,2.33-1.16,2.16-2.47-.22-1.69-.58-3.4-1.1-5.13-.77-2.57-1.94-5.07-3.5-7.48ZM407.2,518.44c1.54,0,2.92.29,4.14.88,1.22.58,2.19,1.41,2.91,2.47.72,1.06,1.07,2.31,1.07,3.74,0,1.54-.4,2.89-1.19,4.06-.8,1.17-1.88,2.08-3.26,2.75-1.38.66-3,.99-4.86.99h-7.62c-1.2,0-2.17-.97-2.17-2.17v-10.54c0-1.2.97-2.17,2.17-2.17h8.81Z"/>
      <path class="cls-1" d="M469.45,511.39c-3.61-2.31-7.83-3.46-12.66-3.46s-9.06,1.15-12.69,3.46c-3.64,2.31-6.45,5.61-8.44,9.91-1.99,4.3-2.98,9.42-2.98,15.36s1,10.98,2.98,15.28c1.99,4.3,4.8,7.61,8.44,9.95,3.63,2.33,7.87,3.5,12.69,3.5s9.05-1.17,12.66-3.5c3.61-2.33,6.42-5.65,8.44-9.95,2.02-4.3,3.02-9.39,3.02-15.28s-1.01-11.13-3.02-15.4c-2.02-4.27-4.83-7.56-8.44-9.87ZM467.34,547.01c-1.03,2.87-2.47,5.05-4.3,6.57s-3.91,2.27-6.25,2.27-4.43-.76-6.29-2.27c-1.86-1.51-3.3-3.7-4.34-6.57-1.03-2.86-1.55-6.31-1.55-10.35s.52-7.48,1.55-10.35,2.48-5.05,4.34-6.57c1.86-1.51,3.95-2.27,6.29-2.27s4.42.76,6.25,2.27,3.26,3.69,4.3,6.53c1.03,2.84,1.55,6.3,1.55,10.39s-.52,7.48-1.55,10.35Z"/>
      <path class="cls-1" d="M523.93,536.07c-1.78-1.25-3.71-2.23-5.81-2.94-2.1-.72-4.21-1.33-6.33-1.83-2.12-.5-4.07-1.03-5.85-1.59-1.78-.56-3.2-1.29-4.26-2.19-1.06-.9-1.59-2.1-1.59-3.58,0-2.07.78-3.66,2.35-4.78,1.56-1.11,3.54-1.67,5.93-1.67,1.64,0,3.17.33,4.58.99,1.41.66,2.57,1.63,3.5,2.91.62.85,1.04,1.84,1.27,2.98.21,1.04,1.1,1.8,2.16,1.8h7.25c1.34,0,2.38-1.18,2.19-2.51-.4-2.81-1.37-5.26-2.89-7.36-1.96-2.71-4.52-4.78-7.68-6.21-3.16-1.43-6.62-2.15-10.39-2.15-4.09,0-7.64.72-10.67,2.15s-5.37,3.38-7.04,5.85-2.51,5.24-2.51,8.32.53,5.43,1.59,7.36c1.06,1.94,2.48,3.49,4.26,4.66,1.78,1.17,3.73,2.12,5.85,2.87,2.12.74,4.23,1.38,6.33,1.91,2.1.53,4.03,1.1,5.81,1.71,1.78.61,3.2,1.39,4.26,2.35,1.06.96,1.59,2.23,1.59,3.82,0,2.18-.81,3.87-2.43,5.09-1.62,1.22-3.78,1.83-6.49,1.83-3.34,0-5.89-.98-7.64-2.94-1.43-1.6-2.27-3.78-2.54-6.54-.11-1.12-1.06-1.97-2.19-1.97h-6.98c-1.3,0-2.31,1.11-2.2,2.41.27,3.34,1.11,6.28,2.53,8.82,1.75,3.13,4.24,5.55,7.48,7.24,3.24,1.7,7.08,2.55,11.54,2.55,4.03,0,7.63-.7,10.78-2.11,3.16-1.41,5.64-3.34,7.44-5.81,1.8-2.47,2.71-5.35,2.71-8.64s-.55-5.8-1.63-7.84c-1.09-2.04-2.52-3.69-4.3-4.93Z"/>
      <path class="cls-1" d="M551.98,552.69v-10.01c0-1.21.98-2.2,2.2-2.2h14.87c1.21,0,2.2-.98,2.2-2.2v-5.16c0-1.21-.98-2.2-2.2-2.2h-14.87c-1.21,0-2.2-.98-2.2-2.2v-8.1c0-1.21.98-2.2,2.2-2.2h24.74c1.21,0,2.2-.98,2.2-2.2v-5.16c0-1.21-.98-2.2-2.2-2.2h-36.36c-1.21,0-2.2.98-2.2,2.2v51.16c0,1.21.98,2.2,2.2,2.2h36.68c1.21,0,2.2-.98,2.2-2.2v-5.16c0-1.21-.98-2.2-2.2-2.2h-25.06c-1.21,0-2.2-.98-2.2-2.2Z"/>
    </g>
    <path class="cls-1" d="M326.08,482.21c-6.94-7.08-15.15-12.89-24.23-17.13-.37-.19-.75-.36-1.13-.53-1.79-.8-3.59-1.56-5.44-2.23-5.17-1.88-10.59-3.25-16.19-4.07-3.91-.57-7.91-.88-11.98-.88-45.56,0-82.62,37.06-82.62,82.62,0,35.49,22.5,65.82,53.98,77.5,3.7,1.37,7.53,2.48,11.46,3.32,5.54,1.18,11.29,1.81,17.18,1.81,31.38,0,58.73-17.59,72.71-43.43,6.32-11.67,9.91-25.02,9.91-39.2,0-22.48-9.04-42.88-23.65-57.79ZM209.13,584.2c-9.76-12.88-14.92-28.24-14.92-44.43,0-27.64,15.32-51.77,37.92-64.33.6-.33,1.19.46.69.93-2.06,1.94-4.05,4.02-5.94,6.23-13.1,15.32-20.64,36.15-20.71,57.17,0,27.29,18.26,56.75,47.75,56.75,26.32,0,47.73-25.46,47.73-56.75,0-14.7-4.93-28.82-13.34-39.29-.3-.37.06-.89.51-.76,14.23,4.21,24.87,20.57,24.87,40.05,0,17.2-6.24,34.33-17.13,46.99-11.28,13.12-26.42,20.35-42.64,20.36-17.07,0-33.41-8.37-44.79-22.92ZM326.39,495.39c9.75,12.85,14.9,28.19,14.89,44.37,0,27.64-15.32,51.77-37.92,64.33-.6.33-1.19-.46-.69-.93,2.06-1.94,4.05-4.02,5.94-6.23,13.1-15.32,20.64-36.15,20.71-57.17,0-27.29-18.26-56.75-47.75-56.75-26.32,0-47.73,25.46-47.73,56.75,0,14.7,4.93,28.82,13.35,39.3.3.37-.06.89-.51.76-14.23-4.21-24.87-20.56-24.87-40.04,0-17.2,6.24-34.32,17.13-46.98,11.29-13.12,26.43-20.35,42.65-20.35,17.06,0,33.4,8.37,44.81,22.95ZM293.02,539.77c0,19.49-9.47,36.31-23.04,43.86-1.68.94-3.75.82-5.31-.31l-2.9-2.12c-11.9-8.69-19.3-24.57-19.3-41.44,0-19.49,9.47-36.31,23.04-43.86,1.68-.94,3.75-.82,5.31.32l2.9,2.12c11.9,8.69,19.3,24.56,19.3,41.44Z"/>
  </g>
  <g>
    <path class="cls-1" d="M640.48,547.94h0c-.16,1.67-2.57,1.77-2.85.11l-.02-.11-7.53-37.22c-.14-.67-.73-1.16-1.41-1.16h-3.01c-.68,0-1.27.48-1.41,1.15l-7.61,37.22-.17.92c-.3,1.63-2.67,1.55-2.85-.1l-.09-.82-5.19-37.14c-.1-.71-.71-1.24-1.43-1.24h-2.22c-.88,0-1.55.77-1.43,1.64l7.21,51.34c.1.71.71,1.24,1.43,1.24h4.88c.68,0,1.27-.48,1.41-1.15l7.3-35.36.22-1.28c.28-1.61,2.59-1.59,2.84.02l.2,1.26,7.07,35.35c.13.67.73,1.16,1.41,1.16h4.71c.72,0,1.33-.53,1.43-1.24l7.21-51.34c.12-.87-.55-1.64-1.43-1.64h-2.14c-.72,0-1.33.53-1.43,1.24l-5.11,37.13Z"/>
    <path class="cls-1" d="M673.55,510.54l-17.8,51.34c-.32.94.37,1.91,1.36,1.91h2.39c.61,0,1.16-.39,1.36-.97l4.83-13.84c.2-.58.75-.97,1.36-.97h20.7c.61,0,1.16.39,1.36.97l4.78,13.83c.2.58.75.97,1.36.97h2.39c.99,0,1.69-.98,1.36-1.91l-17.8-51.34c-.2-.58-.75-.97-1.36-.97h-4.94c-.61,0-1.16.39-1.36.97ZM669.69,543.36c-.99,0-1.69-.98-1.36-1.92l5.87-16.81,1.88-5.92c.43-1.34,2.32-1.34,2.75,0l1.82,5.76,5.87,16.97c.32.94-.37,1.91-1.36,1.91h-15.46Z"/>
    <path class="cls-1" d="M716.34,509.57h-2.32c-.8,0-1.44.65-1.44,1.44v51.34c0,.8.65,1.44,1.44,1.44h32.15c.8,0,1.44-.65,1.44-1.44v-1.78c0-.8-.65-1.44-1.44-1.44h-26.95c-.8,0-1.44-.65-1.44-1.44v-46.68c0-.8-.65-1.44-1.44-1.44Z"/>
    <path class="cls-1" d="M766.83,509.57h-2.32c-.8,0-1.44.65-1.44,1.44v51.34c0,.8.65,1.44,1.44,1.44h32.15c.8,0,1.44-.65,1.44-1.44v-1.78c0-.8-.65-1.44-1.44-1.44h-26.95c-.8,0-1.44-.65-1.44-1.44v-46.68c0-.8-.65-1.44-1.44-1.44Z"/>
    <path class="cls-1" d="M817.18,538h20.58c.8,0,1.44-.65,1.44-1.44v-1.78c0-.8-.65-1.44-1.44-1.44h-20.58c-.8,0-1.44-.65-1.44-1.44v-16.23c0-.8.65-1.44,1.44-1.44h30.06c.8,0,1.44-.65,1.44-1.44v-1.78c0-.8-.65-1.44-1.44-1.44h-35.18c-.8,0-1.44.65-1.44,1.44v51.34c0,.8.65,1.44,1.44,1.44h35.5c.8,0,1.44-.65,1.44-1.44v-1.78c0-.8-.65-1.44-1.44-1.44h-30.37c-.8,0-1.44-.65-1.44-1.44v-18.25c0-.8.65-1.44,1.44-1.44Z"/>
    <path class="cls-1" d="M858.16,511.01v1.78c0,.8.65,1.44,1.44,1.44h13.19c.8,0,1.44.65,1.44,1.44v46.68c0,.8.65,1.44,1.44,1.44h2.32c.8,0,1.44-.65,1.44-1.44v-46.68c0-.8.65-1.44,1.44-1.44h13.19c.8,0,1.44-.65,1.44-1.44v-1.78c0-.8-.65-1.44-1.44-1.44h-34.47c-.8,0-1.44.65-1.44,1.44Z"/>
  </g>
</svg>
