<svg width="880" height="550" viewBox="0 0 232.833 145.521" xmlns:xlink="http://www.w3.org/1999/xlink" xmlns="http://www.w3.org/2000/svg" xmlns:lucid="lucid"><defs><path fill="#1d262b" d="M30-248c87 1 191-15 191 75 0 78-77 80-158 76V0H30Zm33 125c57 0 124 11 124-50 0-59-68-47-124-48v98" id="j"/><path fill="#1d262b" d="M114-163C36-179 61-72 57 0H25l-1-190h30c1 12-1 29 2 39 6-27 23-49 58-41v29" id="b"/><path fill="#1d262b" d="M135-143c-3-34-86-38-87 0 15 53 115 12 119 90S17 21 10-45l28-5c4 36 97 45 98 0-10-56-113-15-118-90-4-57 82-63 122-42 12 7 21 19 24 35" id="m"/><path fill="#1d262b" d="M100-194c63 0 86 42 84 106H49c0 40 14 67 53 68 26 1 43-12 49-29l28 8c-11 28-37 45-77 45C44 4 14-33 15-96c1-61 26-98 85-98zm52 81c6-60-76-77-97-28-3 7-6 17-6 28h103" id="g"/><path fill="#1d262b" d="M177-190C167-65 218 103 67 71c-23-6-38-20-44-43l32-5c15 47 100 32 89-28v-30C133-14 115 1 83 1 29 1 15-40 15-95c0-56 16-97 71-98 29-1 48 16 59 35 1-10 0-23 2-32zM94-22c36 0 50-32 50-73 0-42-14-75-50-75-39 0-46 34-46 75s6 73 46 73" id="a"/><path fill="#1d262b" d="M115-194c55 1 70 41 70 98S169 2 115 4C84 4 66-9 55-30l1 105H24l-1-265h31l2 30c10-21 28-34 59-34zm-8 174c40 0 45-34 45-75s-6-73-45-74c-42 0-51 32-51 76 0 43 10 73 51 73" id="c"/><path fill="#1d262b" d="M96-169c-40 0-48 33-48 73s9 75 48 75c24 0 41-14 43-38l32 2c-6 37-31 61-74 61-59 0-76-41-82-99-10-93 101-131 147-64 4 7 5 14 7 22l-32 3c-4-21-16-35-41-35" id="d"/><path fill="#1d262b" d="M16-82v-28h88v28H16" id="e"/><path fill="#1d262b" d="M206 0h-36l-40-164L89 0H53L-1-190h32L70-26l43-164h34l41 164 42-164h31" id="f"/><path fill="#1d262b" d="M115-194c53 0 69 39 70 98 0 66-23 100-70 100C84 3 66-7 56-30L54 0H23l1-261h32v101c10-23 28-34 59-34zm-8 174c40 0 45-34 45-75 0-40-5-75-45-74-42 0-51 32-51 76 0 43 10 73 51 73" id="h"/><path fill="#1d262b" d="m205 0-28-72H64L36 0H1l101-248h38L239 0Zm-38-99-47-123c-12 45-31 82-46 123h93" id="i"/><path fill="#1d262b" d="M33 0v-248h34V0H33" id="k"/><path fill="#1d262b" d="M232-93c-1 65-40 97-104 97C67 4 28-28 28-90v-158h33c8 89-33 224 67 224 102 0 64-133 71-224h33v155" id="l"/><g id="n"><use transform="scale(.04938)" xlink:href="#a" width="100%" height="100%"/><use transform="matrix(.04938 0 0 .04938 9.877 0)" xlink:href="#b" width="100%" height="100%"/><use transform="matrix(.04938 0 0 .04938 15.753 0)" xlink:href="#c" width="100%" height="100%"/><use transform="matrix(.04938 0 0 .04938 25.63 0)" xlink:href="#d" width="100%" height="100%"/></g><g id="o"><use transform="scale(.04938)" xlink:href="#a" width="100%" height="100%"/><use transform="matrix(.04938 0 0 .04938 9.877 0)" xlink:href="#b" width="100%" height="100%"/><use transform="matrix(.04938 0 0 .04938 15.753 0)" xlink:href="#c" width="100%" height="100%"/><use transform="matrix(.04938 0 0 .04938 25.63 0)" xlink:href="#d" width="100%" height="100%"/><use transform="matrix(.04938 0 0 .04938 34.519 0)" xlink:href="#e" width="100%" height="100%"/><use transform="matrix(.04938 0 0 .04938 40.395 0)" xlink:href="#f" width="100%" height="100%"/><use transform="matrix(.04938 0 0 .04938 53.185 0)" xlink:href="#g" width="100%" height="100%"/><use transform="matrix(.04938 0 0 .04938 63.062 0)" xlink:href="#h" width="100%" height="100%"/></g><g id="p"><use transform="scale(.04938)" xlink:href="#i" width="100%" height="100%"/><use transform="matrix(.04938 0 0 .04938 11.852 0)" xlink:href="#j" width="100%" height="100%"/><use transform="matrix(.04938 0 0 .04938 23.704 0)" xlink:href="#k" width="100%" height="100%"/></g><g id="q"><use transform="scale(.04938)" xlink:href="#l" width="100%" height="100%"/><use transform="matrix(.04938 0 0 .04938 12.79 0)" xlink:href="#m" width="100%" height="100%"/><use transform="matrix(.04938 0 0 .04938 21.679 0)" xlink:href="#g" width="100%" height="100%"/><use transform="matrix(.04938 0 0 .04938 31.556 0)" xlink:href="#b" width="100%" height="100%"/></g></defs><g transform="matrix(.26458 0 0 .26458 -16.47 -12.76)" lucid:page-tab-id="0_0" style="display:inline"><path d="M0 0h1870.87v1322.83H0Z" fill="#fff"/><path d="M570 480c5.52 0 10 4.48 10 10v80c0 5.52-4.48 10-10 10H390c-5.52 0-10-4.48-10-10v-80c0-5.52 4.48-10 10-10zm2.7-140c5.5 0 10 4.48 10 10v80c0 5.52-4.5 10-10 10h-180c-5.54 0-10-4.48-10-10v-80c0-5.52 4.46-10 10-10zM570 70c5.52 0 10 4.48 10 10v80c0 5.52-4.48 10-10 10H390c-5.52 0-10-4.48-10-10V80c0-5.52 4.48-10 10-10zM700 206a6 6 0 0 1 6-6h208a6 6 0 0 1 6 6v128a6 6 0 0 1-6 6H706a6 6 0 0 1-6-6z" stroke="#4881b3" stroke-width="3" fill="#f5fbff"/><path d="M760 96a6 6 0 0 1 6-6h68a6 6 0 0 1 6 6v48a6 6 0 0 1-6 6h-68a6 6 0 0 1-6-6z" fill="none"/><use xlink:href="#n" transform="translate(782.74 124.847)" width="100%" height="100%"/><path d="M760 426a6 6 0 0 1 6-6h68a6 6 0 0 1 6 6v48a6 6 0 0 1-6 6h-68a6 6 0 0 1-6-6z" fill="none"/><use xlink:href="#n" transform="translate(782.74 454.847)" width="100%" height="100%"/><path d="M220 299V126a6 6 0 0 1 6-6h134M220 298.97V300" stroke="#224c72" stroke-width="2" fill="none"/><path d="M375.26 120 361 124.64v-9.28z" stroke="#224c72" stroke-width="2" fill="#224c72"/><path d="M299 464h-73a6 6 0 0 1-6-6V301m78.97 163H300m-80-162.97V300" stroke="#224c72" stroke-width="2" fill="none"/><path d="M385.37 347.67a6 6 0 0 1 6-6H574a6 6 0 0 1 6 6V434a6 6 0 0 1-6 6H391.37a6 6 0 0 1-6-6zM382.7 504.33a6 6 0 0 1 6-6h182.6a6 6 0 0 1 6 6v51.34a6 6 0 0 1-6 6H388.7a6 6 0 0 1-6-6zM240 76a6 6 0 0 1 6-6h68a6 6 0 0 1 6 6v48a6 6 0 0 1-6 6h-68a6 6 0 0 1-6-6z" fill="none"/><use xlink:href="#o" transform="translate(243.53 103.556)" width="100%" height="100%"/><path d="M220 466a6 6 0 0 1 6-6h68a6 6 0 0 1 6 6v48a6 6 0 0 1-6 6h-68a6 6 0 0 1-6-6z" fill="none"/><use xlink:href="#p" transform="translate(245.679 494.847)" width="100%" height="100%"/><path d="M360 530h-54a6 6 0 0 1-6-6v-43" stroke="#224c72" stroke-width="2" fill="none"/><path d="M375.26 530 361 534.64v-9.28z" stroke="#224c72" stroke-width="2" fill="#224c72"/><path d="M300 481.03V480m66.9-89.17H306a6 6 0 0 0-6 6V479" stroke="#224c72" stroke-width="2" fill="none"/><path d="m382.17 390.83-14.26 4.64v-9.27z" stroke="#224c72" stroke-width="2" fill="#224c72"/><path d="M300 478.97V480m282.5-360h159.03" stroke="#224c72" stroke-width="2" fill="none"/><path d="M582.53 121h-1.03v-2h1.03z" stroke="#224c72" stroke-width=".05" fill="#224c72"/><path d="m756.8 120-14.27 4.64v-9.28z" stroke="#224c72" stroke-width="2" fill="#224c72"/><path d="M800 150.96v23.22a.07.07 0 0 1-.07.07.07.07 0 0 0-.07.07v5.72" stroke="#224c72" stroke-width="2" fill="none"/><path d="M801 151h-2v-1.04h2z" stroke="#224c72" stroke-width=".05" fill="#224c72"/><path d="m799.86 195.3-4.64-14.26h9.27z" stroke="#224c72" stroke-width="2" fill="#224c72"/><path d="M800 419.04v-38.22a.07.07 0 0 0-.07-.07.07.07 0 0 1-.07-.07v-20.7" stroke="#224c72" stroke-width="2" fill="none"/><path d="M801 420.04h-2V419h2z" stroke="#224c72" stroke-width=".05" fill="#224c72"/><path d="m799.86 344.7 4.63 14.27h-9.28z" stroke="#224c72" stroke-width="2" fill="#224c72"/><path d="M102.24 342.22v-22.18m35.52 22.18v-22.18M80 342.22v-22.18c0-22.08 17.92-35.57 40-35.57s40 13.5 40 35.57v22.18m-40-57.75c12.24 0 22.24-10.02 22.24-22.3 0-12.25-10-22.17-22.24-22.17-12.24 0-22.24 9.92-22.24 22.18 0 12.27 10 22.3 22.24 22.3z" stroke="#4881b3" stroke-width="3" fill="#f5fbff"/><path d="M80 346a6 6 0 0 1 6-6h68a6 6 0 0 1 6 6v48a6 6 0 0 1-6 6H86a6 6 0 0 1-6-6z" fill="none"/><use xlink:href="#q" transform="translate(101.284 374.847)" width="100%" height="100%"/><path d="M181 291.1h38m-37.97 0H180m38.97 0H220M585.2 390H674a6 6 0 0 1 6 6v48a6 6 0 0 0 6 6h55.53" stroke="#224c72" stroke-width="2" fill="none"/><path d="M585.2 391h-1v-2h1z" stroke="#224c72" stroke-width=".05" fill="#224c72"/><path d="m756.8 450-14.27 4.64v-9.28z" stroke="#224c72" stroke-width="2" fill="#224c72"/><path d="M578.28 530H674a6 6 0 0 0 6-6v-68a6 6 0 0 1 6-6h55.53" stroke="#224c72" stroke-width="2" fill="none"/><path d="M578.3 531h-1.02v-2h1.02z" stroke="#224c72" stroke-width=".05" fill="#224c72"/><path d="m756.8 450-14.27 4.64v-9.28z" stroke="#224c72" stroke-width="2" fill="#224c72"/><text xml:space="preserve" style="font-style:normal;font-weight:400;font-size:40px;line-height:1.25;font-family:sans-serif;fill:#000;fill-opacity:1;stroke:none" x="470.119" y="334.612"/></g><g style="display:inline"><text xml:space="preserve" style="font-style:normal;font-variant:normal;font-weight:400;font-stretch:normal;font-size:5.82083px;line-height:1.25;font-family:FreeSans;-inkscape-font-specification:FreeSans;text-align:center;text-anchor:middle;fill:#000;fill-opacity:1;stroke:none;stroke-width:.264583" x="111.532" y="87.907"><tspan x="111.532" y="87.907" style="font-style:normal;font-variant:normal;font-weight:400;font-stretch:normal;font-size:5.82083px;font-family:FreeSans;-inkscape-font-specification:FreeSans;text-align:center;text-anchor:middle;stroke-width:.264583">Oasis Nexus</tspan><tspan x="111.532" y="95.183" style="font-style:normal;font-variant:normal;font-weight:400;font-stretch:normal;font-size:5.82083px;font-family:FreeSans;-inkscape-font-specification:FreeSans;text-align:center;text-anchor:middle;stroke-width:.264583">Backend</tspan></text></g><g style="display:inline"><text xml:space="preserve" style="font-style:normal;font-variant:normal;font-weight:400;font-stretch:normal;font-size:5.82083px;line-height:1.25;font-family:FreeSans;-inkscape-font-specification:FreeSans;text-align:center;text-anchor:middle;fill:#000;fill-opacity:1;stroke:none;stroke-width:.264583" x="198.647" y="60.008"><tspan x="198.647" y="60.008" style="font-style:normal;font-variant:normal;font-weight:400;font-stretch:normal;font-size:5.82083px;font-family:FreeSans;-inkscape-font-specification:FreeSans;text-align:center;text-anchor:middle;stroke-width:.264583">Oasis Node</tspan></text></g><g style="display:inline"><text xml:space="preserve" style="font-style:normal;font-variant:normal;font-weight:400;font-stretch:normal;font-size:5.82083px;line-height:1.25;font-family:FreeSans;-inkscape-font-specification:FreeSans;text-align:center;text-anchor:middle;fill:#000;fill-opacity:1;stroke:none;stroke-width:.264583" x="111.503" y="20.467"><tspan x="111.503" y="20.467" style="font-style:normal;font-variant:normal;font-weight:400;font-stretch:normal;font-size:5.82083px;font-family:FreeSans;-inkscape-font-specification:FreeSans;text-align:center;text-anchor:middle;stroke-width:.264583">Envoy Proxy</tspan></text></g><g style="display:inline"><text xml:space="preserve" style="font-style:normal;font-variant:normal;font-weight:400;font-stretch:normal;font-size:5.82083px;line-height:1.25;font-family:FreeSans;-inkscape-font-specification:FreeSans;text-align:center;text-anchor:middle;fill:#000;fill-opacity:1;stroke:none;stroke-width:.264583" x="111.532" y="125.478"><tspan x="111.532" y="125.478" style="font-style:normal;font-variant:normal;font-weight:400;font-stretch:normal;font-size:5.82083px;font-family:FreeSans;-inkscape-font-specification:FreeSans;text-align:center;text-anchor:middle;stroke-width:.264583">Oasis Scan</tspan><tspan x="111.532" y="132.754" style="font-style:normal;font-variant:normal;font-weight:400;font-stretch:normal;font-size:5.82083px;font-family:FreeSans;-inkscape-font-specification:FreeSans;text-align:center;text-anchor:middle;stroke-width:.264583">Backend</tspan></text></g></svg>